<?xml version="1.0" encoding="utf-8"?>
<!-- Generator: Adobe Illustrator 20.1.0, SVG Export Plug-In . SVG Version: 6.00 Build 0)  -->
<svg version="1.1" id="Layer_1" xmlns="http://www.w3.org/2000/svg" xmlns:xlink="http://www.w3.org/1999/xlink" x="0px" y="0px"
	 width="300px" height="90px" viewBox="0 0 300 90" style="enable-background:new 0 0 300 90;" xml:space="preserve">
<style type="text/css">
	.st0{fill:#60375F;}
	.st1{fill:#1D1D1B;}
	.st2{fill:#EA5E55;}
	.st3{fill:#EE7B66;}
	.st4{fill:#C84152;}
	.st5{fill:#AC3A59;}
	.st6{fill:#8C3358;}
</style>
<g>
	<g>
		<path class="st0" d="M112.9,35.1c-0.7-0.7-1-1.5-1-2.4c0-0.9,0.3-1.7,1-2.4c0.7-0.7,1.5-1,2.4-1c0.9,0,1.7,0.3,2.4,1
			c0.7,0.7,1,1.5,1,2.4c0,0.9-0.3,1.7-1,2.4c-0.7,0.7-1.5,1-2.4,1C114.4,36.1,113.6,35.7,112.9,35.1z M118,65.8h-5.4V40.2h5.4V65.8z
			"/>
		<path class="st0" d="M138.8,36.6c-1.7,0-3,0.3-4.1,1c-1.1,0.7-1.6,1.7-1.6,3.1c0,1.4,0.5,2.4,1.6,3.1c1.1,0.7,3.3,1.5,6.8,2.3
			c3.5,0.8,6.1,2,7.8,3.5c1.8,1.5,2.6,3.7,2.6,6.7c0,2.9-1.1,5.3-3.3,7.1c-2.2,1.8-5.2,2.7-8.8,2.7c-5.3,0-10-1.8-14.1-5.4l3.6-4.3
			c3.4,3,7,4.4,10.7,4.4c1.8,0,3.3-0.4,4.4-1.2c1.1-0.8,1.6-1.8,1.6-3.1c0-1.3-0.5-2.3-1.5-3c-1-0.7-2.8-1.4-5.3-2
			c-2.5-0.6-4.4-1.1-5.7-1.6c-1.3-0.5-2.4-1.1-3.4-1.9c-2-1.5-3-3.8-3-6.9c0-3.1,1.1-5.5,3.4-7.2c2.3-1.7,5.1-2.5,8.5-2.5
			c2.2,0,4.3,0.4,6.4,1.1c2.1,0.7,4,1.7,5.5,3l-3.1,4.3c-1-0.9-2.4-1.6-4.1-2.2C142.1,36.8,140.5,36.6,138.8,36.6z"/>
		<path class="st0" d="M161,65.8V32.1h5.7v14.6h16.8V32.1h5.7v33.6h-5.7V52h-16.8v13.8H161z"/>
		<path class="st0" d="M205.4,58.1l-3.4,7.7h-6.1l14.9-33.6h6.1l14.9,33.6h-6.1l-3.4-7.7H205.4z M220,52.9L213.8,39l-6.2,13.9H220z"
			/>
		<path class="st0" d="M265.5,43c0,5.6-2.4,9-7.3,10.5l8.9,12.2h-7.3l-8.1-11.3h-7.5v11.3h-5.7V32.1H251c5.2,0,8.9,0.9,11.1,2.6
			C264.4,36.5,265.5,39.2,265.5,43z M257.9,47.8c1.2-1,1.7-2.6,1.7-4.8c0-2.2-0.6-3.7-1.8-4.5c-1.2-0.8-3.3-1.2-6.4-1.2h-7.3v12h7.1
			C254.5,49.3,256.7,48.8,257.9,47.8z"/>
		<path class="st0" d="M299.4,32.1v5.3h-18.1v8.9h16.2v5.1h-16.2v9H300v5.3h-24.4V32.1H299.4z"/>
	</g>
	<g>
		<path class="st1" d="M13.3,77.3C13.3,77.3,13.3,77.3,13.3,77.3C13.3,77.3,13.2,77.3,13.3,77.3C13.2,77.3,13.2,77.3,13.3,77.3z"/>
		<path class="st1" d="M77.3,13.7C77.3,13.7,77.3,13.7,77.3,13.7C77.3,13.7,77.3,13.7,77.3,13.7C77.3,13.7,77.3,13.7,77.3,13.7z"/>
		<path class="st2" d="M6.8,66.5c0.7-0.8,0.8-2.5,0.1-4.2c-0.4-1.2-0.3-2.3,0.2-3.1c0.1-0.1,0.1-0.2,0.2-0.3c0.5-0.8,1.5-1,2.5-0.7
			c1.5,0.6,3.2,0.2,4.3-1.4c1.2-1.8,1.1-4.8-0.3-6.9c-1.9-2.7-5-2.8-6.6-0.7c-1,1.3-1.2,3.2-0.8,4.9c0.3,1.2,0.2,2.5-0.4,3.3
			c-0.1,0.1-0.1,0.2-0.2,0.3c-0.5,0.8-1.3,1-2.2,0.6c-0.7-0.4-1.4-0.4-2-0.1c0.9,3,2.1,5.8,3.6,8.6C5.9,67,6.4,66.9,6.8,66.5z"/>
		<path class="st2" d="M3.4,54.8c1.4-1.7,1.3-5.3-0.2-7.5c-0.9-1.3-2.1-1.8-3.1-1.4c0,0-0.1,0-0.1,0c0,3.2,0.4,6.4,1.1,9.5
			C1.9,55.8,2.8,55.6,3.4,54.8z"/>
		<path class="st3" d="M4.3,42.2c1.2-1.4,1.8-3.5,1.6-5.3c-0.1-1.2,0.3-2.5,1.1-3.4c0.1-0.1,0.2-0.2,0.3-0.4C8,32.2,9,31.7,10,31.9
			c1.4,0.3,3.3-0.5,4.6-2.2c1.6-2,1.9-4.7,0.8-6.2c-1.4-2-4-1.4-6,0.7c-1.2,1.3-1.9,3-1.9,4.5c0,1.1-0.5,2.3-1.2,3.3
			c-0.1,0.1-0.2,0.2-0.3,0.4c-0.7,0.9-1.7,1.4-2.4,1.3c-0.7-0.1-1.5,0.1-2.2,0.7c-0.7,2.7-1.1,5.4-1.3,8.2
			C1.1,43.8,2.9,43.7,4.3,42.2z"/>
		<path class="st4" d="M18.1,79.3c0.7-0.8,0.3-2.9-1.3-4.7c-2.1-2.3-4.9-3.1-5.7-1.9c-0.5,0.6-0.3,1.7,0.4,2.8
			c0.6,0.6,1.1,1.2,1.7,1.8c0,0,0,0,0.1,0.1c0.6,0.6,1.2,1.2,1.8,1.7C16.3,79.8,17.5,80,18.1,79.3z"/>
		<path class="st5" d="M50,74.1c-1.4,0.3-2.8,0-3.7-0.9c-0.1-0.1-0.3-0.2-0.4-0.3c-1-0.9-1.4-2.2-1.1-3.4c0.5-1.7-0.1-3.7-1.6-5.1
			c-2.5-2.4-6.6-2.3-8.7,0.3c-1.6,2-1.4,4.8,0.3,6.7c1.5,1.7,3.8,2.3,5.8,1.9c1.4-0.3,2.8,0.1,3.8,1c0.1,0.1,0.3,0.2,0.4,0.3
			c1,0.9,1.4,2.1,1.1,3.2c-0.5,1.7,0.2,3.4,1.8,4.4c1.9,1.2,4.7,1.1,6.7-0.3c2.6-1.7,3.1-4.8,0.9-6.7C53.9,74,51.9,73.6,50,74.1z"/>
		<path class="st4" d="M22.8,72.7c-1.1,0.1-2.4-0.4-3.3-1.3c-0.1-0.1-0.2-0.2-0.4-0.4c-0.9-0.9-1.5-2.1-1.3-3.3
			c0.2-1.5-0.5-3.4-1.8-4.9c-2.2-2.4-5.3-2.5-6.4-0.4c-0.9,1.6-0.3,4,1.1,5.8c1.3,1.6,2.9,2.4,4.4,2.4c1-0.1,2.1,0.5,3,1.4
			c0.1,0.1,0.2,0.2,0.3,0.3c0.9,0.9,1.5,2.1,1.4,3c-0.1,1.4,0.8,3,2.4,4.3c1.8,1.5,4.2,2,5.8,1.1c2.1-1.1,2-4.2-0.4-6.4
			C26.3,73.2,24.4,72.6,22.8,72.7z"/>
		<path class="st4" d="M30.3,64.6c-0.4-1.3,0-2.7,0.9-3.6c0.1-0.1,0.2-0.2,0.4-0.4c1-1,2.4-1.3,3.8-1c2.1,0.5,4.4-0.1,6-1.9
			c1.8-2.1,1.8-5.3,0-7.5c-2.3-2.9-6.5-3-8.9-0.6c-1.5,1.5-2,3.6-1.5,5.5c0.4,1.4,0,2.8-1,3.8c-0.1,0.1-0.2,0.2-0.4,0.4
			c-0.9,0.9-2.3,1.3-3.6,0.9c-1.8-0.5-3.7-0.1-4.9,1.2c-2,2.1-1.4,5.6,1.1,7.8c2,1.6,4.7,1.9,6.5,0.6C30.4,68.7,30.9,66.6,30.3,64.6
			z"/>
		<path class="st2" d="M26.1,56.3c2.6-2.1,2.7-6.2,0.3-8.7c-1.4-1.5-3.4-2-5.2-1.6c-1.3,0.3-2.6-0.1-3.4-1.1
			c-0.1-0.1-0.2-0.3-0.3-0.4c-0.9-1-1.2-2.4-0.9-3.7c0.4-1.9,0.1-3.9-1.1-5.2c-1.9-2.2-5-1.7-6.7,0.9c-1.3,2-1.5,4.8-0.3,6.7
			c1,1.7,2.8,2.3,4.5,1.8c1.1-0.3,2.3,0.1,3.2,1.1c0.1,0.1,0.2,0.3,0.3,0.4c0.9,1,1.3,2.4,1,3.8c-0.4,2,0.3,4.2,2,5.7
			C21.3,57.7,24.1,57.9,26.1,56.3z"/>
		<path class="st6" d="M43.4,87.3c-2.2-1.5-5.9-1.6-7.6-0.2c-0.8,0.6-1,1.5-0.7,2.3c3.2,0.7,6.4,1.1,9.6,1.1c0,0,0-0.1,0-0.1
			C45.2,89.4,44.8,88.2,43.4,87.3z"/>
		<path class="st6" d="M57.3,86.9c-0.2-0.7,0.3-1.7,1.3-2.4c0.1-0.1,0.2-0.2,0.4-0.3c0.9-0.8,2.2-1.2,3.3-1.2c1.6,0,3.5-0.8,4.9-2.2
			c1.6-1.6,2.1-3.7,1-5c-1.4-1.8-5-1.5-7.4,0.6c-1.5,1.3-2.1,2.9-1.8,4.2c0.2,0.9-0.3,2-1.3,2.7c-0.1,0.1-0.2,0.2-0.4,0.3
			c-0.9,0.8-2.2,1.2-3.4,1.1C52.3,84.5,50.3,85,49,86c-1.9,1.4-2.1,3.3-0.6,4.4c2.8-0.2,5.5-0.6,8.2-1.3
			C57.2,88.4,57.5,87.6,57.3,86.9z"/>
		<path class="st5" d="M32.4,86.7c-0.4-0.8-0.2-1.6,0.6-2.2c0.1-0.1,0.2-0.1,0.3-0.2c0.8-0.5,2-0.7,3.3-0.4c1.9,0.5,3.9,0.2,5.3-1.1
			c1.5-1.4,1.6-3.7-0.1-5.5c-2.2-2.3-6.1-2.6-8.2-0.8c-1.3,1.1-1.6,2.6-1,4c0.4,1,0.1,2-0.7,2.5c-0.1,0.1-0.2,0.1-0.3,0.2
			c-0.8,0.5-1.9,0.6-3.1,0.2c-1.6-0.6-3.2-0.6-4,0c-0.6,0.4-0.8,0.9-0.6,1.6c2.8,1.5,5.7,2.7,8.7,3.6C32.8,88.2,32.7,87.5,32.4,86.7
			z"/>
		<path class="st2" d="M21,41.8c1.9,1.7,4.8,1.6,6.9-0.1c1.8-1.5,2.5-3.9,2.1-6c-0.3-1.4,0.2-2.8,1.2-3.9c0.1-0.1,0.3-0.3,0.4-0.4
			c1-1,2.5-1.5,3.9-1.2c2.1,0.4,4.5-0.3,6-2c1.8-2.1,1.8-5,0.1-6.9c-2.2-2.5-6.1-2.4-8.5-0.2c-1.5,1.4-2.1,3.3-1.7,5.1
			c0.3,1.3-0.2,2.7-1.2,3.7c-0.1,0.1-0.3,0.3-0.4,0.4c-1,1-2.4,1.5-3.7,1.2c-1.8-0.4-3.7,0.2-5.1,1.7C18.6,35.8,18.6,39.7,21,41.8z"
			/>
		<path class="st3" d="M26.4,27.6c2.7-2.2,3.1-5.9,1-7.8c-1.2-1.1-3-1.3-4.7-0.8c-1.2,0.4-2.4,0.2-3-0.4c-0.1-0.1-0.2-0.2-0.3-0.2
			c-0.7-0.6-0.8-1.7-0.3-2.7c0.6-1.4,0.6-2.8-0.2-3.4c-1.3-1-3.7,0.1-5.6,2.2c-1.5,1.6-2.2,3.4-1.6,4.6c0.5,1,2,1.1,3.6,0.5
			c1-0.5,2.1-0.3,2.7,0.3c0.1,0.1,0.2,0.2,0.2,0.3c0.7,0.7,0.8,1.8,0.4,3c-0.6,1.8-0.3,3.7,1.1,5C21.5,29.5,24.3,29.4,26.4,27.6z"/>
		<path class="st3" d="M6.3,23.6c-0.1-0.2-0.2-0.3-0.4-0.4c-1.5,2.7-2.8,5.4-3.7,8.3c0.7-0.1,1.4-0.6,2.1-1.4
			C6.3,28.1,7,24.8,6.3,23.6z"/>
		<path class="st6" d="M67.3,84.2c-1.2-0.7-4.5,0-6.6,1.9c-0.8,0.7-1.3,1.5-1.4,2.1c2.9-0.9,5.7-2.2,8.4-3.7
			C67.6,84.5,67.5,84.3,67.3,84.2z"/>
		<path class="st6" d="M63.2,64.3c-1.7,2.1-1.8,4.9-0.4,6.5c1.2,1.4,3.2,1.7,5,1.1c1.2-0.4,2.4-0.2,3,0.4c0.1,0.1,0.2,0.2,0.3,0.2
			c0.7,0.6,0.8,1.7,0.3,2.7c-0.7,1.6-0.5,3,0.5,3.5c1.1,0.6,3-0.1,4.6-1.6c2.1-1.9,3.2-4.3,2.2-5.6c-0.6-0.8-2-0.8-3.4-0.2
			c-1,0.5-2.1,0.3-2.7-0.3c-0.1-0.1-0.2-0.2-0.2-0.3c-0.7-0.7-0.9-1.8-0.4-3c0.6-1.6,0.4-3.4-0.8-4.7C69.2,61.2,65.5,61.6,63.2,64.3
			z"/>
		<path class="st5" d="M62.1,49.7c-1.5,1.5-2,3.7-1.6,5.6c0.3,1.4-0.2,2.8-1.2,3.8c-0.1,0.1-0.3,0.3-0.4,0.4c-1,1-2.5,1.5-3.9,1.2
			c-1.9-0.4-4.1,0.1-5.6,1.6c-2.5,2.4-2.3,6.2,0.4,8.1c2.1,1.5,5.1,1.3,7.2-0.3c1.8-1.4,2.6-3.5,2.2-5.5c-0.3-1.3,0.2-2.7,1.2-3.7
			c0.1-0.1,0.3-0.3,0.4-0.4c1-1,2.4-1.5,3.7-1.2c1.9,0.4,4.1-0.4,5.5-2.2c1.6-2.1,1.8-5,0.3-7.1C68.4,47.4,64.6,47.2,62.1,49.7z"/>
		<path class="st2" d="M58.2,4.3c0.4,0.8,0.2,1.6-0.6,2.1c-0.1,0.1-0.2,0.1-0.3,0.2c-0.8,0.5-2,0.7-3.3,0.4
			c-1.7-0.4-3.6-0.2-4.9,0.8c-2.2,1.6-2.1,4.7,0.7,6.5c2.1,1.4,5.1,1.5,6.9,0.3c1.6-1.1,2-2.8,1.4-4.3c-0.4-1-0.1-2,0.7-2.5
			c0.1-0.1,0.2-0.1,0.3-0.2C59.8,7.1,61,7,62.1,7.4C63.9,8,65.6,8,66.4,7.3c0.4-0.4,0.5-0.9,0.4-1.4c-2.8-1.5-5.7-2.7-8.7-3.5
			C57.8,2.8,57.8,3.5,58.2,4.3z"/>
		<path class="st2" d="M47.1,3.7c2.2,1.5,5.9,1.6,7.6,0.2c0.8-0.6,1-1.5,0.7-2.3c-3.2-0.7-6.4-1.1-9.6-1.1c0,0,0,0.1,0,0.1
			C45.3,1.6,45.8,2.8,47.1,3.7z"/>
		<path class="st3" d="M33.2,4.1c0.2,0.7-0.3,1.7-1.3,2.4c-0.1,0.1-0.2,0.2-0.4,0.3c-0.9,0.8-2.2,1.2-3.3,1.2
			c-1.5,0-3.2,0.7-4.5,1.8c-2.2,1.9-2.7,4.6-0.7,5.9c1.5,1,4.3,0.7,6.3-0.8c1.8-1.3,2.5-3.2,2.2-4.6c-0.2-1,0.3-2,1.3-2.7
			c0.1-0.1,0.2-0.2,0.4-0.3c1-0.8,2.2-1.2,3.4-1.1c1.8,0.2,3.9-0.4,5.3-1.6c1.6-1.4,1.6-3.1,0.2-4.1c-2.8,0.2-5.5,0.6-8.2,1.3
			C33.4,2.6,33.1,3.4,33.2,4.1z"/>
		<path class="st4" d="M72.6,11.5c-1.1,0.8-0.4,3.6,2,5.7c1.8,1.6,3.9,2,4.7,1.3c0.7-0.6,0.5-1.8-0.2-3c-0.6-0.6-1.1-1.2-1.7-1.8
			c0,0,0,0-0.1-0.1c-0.6-0.6-1.2-1.1-1.8-1.7C74.4,11.3,73.3,11,72.6,11.5z"/>
		<path class="st5" d="M64.5,34.7c-2.6,2.1-2.7,6.2-0.3,8.7c1.5,1.5,3.4,2,5.2,1.6c1.3-0.3,2.6,0.1,3.4,1.1c0.1,0.1,0.2,0.3,0.3,0.4
			c0.9,1,1.2,2.4,0.9,3.7c-0.4,1.9-0.1,3.9,1.1,5.2c1.9,2.2,5,1.7,6.7-0.9c1.3-2,1.5-4.8,0.3-6.7c-1-1.7-2.8-2.3-4.5-1.8
			c-1.1,0.3-2.3-0.1-3.2-1.1c-0.1-0.1-0.2-0.3-0.3-0.4c-0.9-1-1.3-2.4-1-3.8c0.4-2-0.3-4.2-2-5.7C69.3,33.3,66.5,33.1,64.5,34.7z"/>
		<path class="st4" d="M70.6,15.5c0.1-1.4-0.8-3.1-2.4-4.3c-1.8-1.5-4.2-2-5.8-1.1c-2.1,1.1-2,4.2,0.4,6.4c1.5,1.3,3.3,2,4.9,1.8
			c1.1-0.1,2.4,0.4,3.3,1.3c0.1,0.1,0.2,0.2,0.4,0.4c0.9,0.9,1.5,2.1,1.3,3.3c-0.2,1.5,0.5,3.4,1.8,4.9c2.2,2.4,5.3,2.5,6.4,0.4
			c0.9-1.6,0.3-4-1.1-5.8c-1.3-1.6-2.9-2.4-4.4-2.4c-1,0.1-2.1-0.5-3-1.4c-0.1-0.1-0.2-0.2-0.3-0.3C71.1,17.7,70.6,16.5,70.6,15.5z"
			/>
		<path class="st4" d="M61.4,21.5c-1.3,1.2-1.7,3.1-1.2,4.9c0.4,1.3,0,2.7-0.9,3.6c-0.1,0.1-0.2,0.2-0.4,0.4c-1,0.9-2.4,1.3-3.8,1
			c-1.9-0.5-4.1,0-5.6,1.5c-2.5,2.4-2.3,6.6,0.6,8.9c2.2,1.8,5.4,1.7,7.5,0c1.8-1.5,2.5-3.8,1.9-5.9c-0.4-1.4,0-2.8,1-3.8
			c0.1-0.1,0.2-0.2,0.4-0.4c1-1,2.3-1.3,3.7-0.9c2,0.6,4.1,0,5.2-1.6c1.4-1.8,1.1-4.5-0.6-6.5C67.1,20.1,63.5,19.5,61.4,21.5z"/>
		<path class="st2" d="M40.6,16.9c1.4-0.3,2.8,0,3.7,0.9c0.1,0.1,0.3,0.2,0.4,0.3c1,0.9,1.4,2.2,1.1,3.4c-0.5,1.7,0.1,3.7,1.6,5.1
			c2.5,2.4,6.6,2.3,8.7-0.3c1.6-2,1.4-4.8-0.3-6.7c-1.5-1.7-3.7-2.3-5.8-1.9c-1.4,0.3-2.8-0.1-3.8-1c-0.1-0.1-0.3-0.2-0.4-0.3
			c-1-0.9-1.4-2.1-1.1-3.2c0.5-1.7-0.2-3.4-1.8-4.4c-1.9-1.2-4.7-1-6.7,0.3c-2.6,1.7-3.1,4.8-0.9,6.7C36.7,17,38.7,17.4,40.6,16.9z"
			/>
		<path class="st6" d="M87.1,36.2c-1.4,1.7-1.3,5.3,0.2,7.5c0.9,1.3,2.1,1.8,3.1,1.4c0,0,0.1,0,0.1,0c0-3.2-0.4-6.4-1.1-9.5
			C88.6,35.2,87.8,35.4,87.1,36.2z"/>
		<path class="st6" d="M86,49.2c-1,1.4-1.4,3.3-1.3,4.9c0.1,1.2-0.3,2.5-1.1,3.4c-0.1,0.1-0.2,0.2-0.3,0.4c-0.8,0.9-1.8,1.4-2.7,1.3
			c-1.3-0.3-3,0.4-4.3,1.8c-2.2,2.4-2.4,5.9-0.6,7.3c1.4,1.1,3.4,0.6,5-1c1.4-1.4,2.2-3.2,2.2-4.9c0-1.1,0.5-2.4,1.2-3.3
			c0.1-0.1,0.2-0.2,0.3-0.4c0.8-0.9,1.7-1.4,2.4-1.3c0.7,0.1,1.5-0.1,2.2-0.7c0.7-2.7,1.1-5.4,1.3-8.2C89.3,47.1,87.4,47.3,86,49.2z
			"/>
		<path class="st5" d="M83.6,24.7c-0.5,0.9-0.5,2.4,0,4c0.4,1.1,0.3,2.3-0.2,3.1c-0.1,0.1-0.1,0.2-0.2,0.3c-0.5,0.8-1.5,1.1-2.5,0.7
			c-1.4-0.5-2.9-0.3-4,1c-1.8,2.1-1.5,6,0.8,8.2c1.7,1.7,4.1,1.6,5.5,0.1c1.2-1.3,1.6-3.4,1.1-5.2c-0.3-1.2-0.2-2.5,0.4-3.3
			c0.1-0.1,0.1-0.2,0.2-0.3c0.5-0.8,1.3-1,2.2-0.6c0.7,0.4,1.4,0.4,1.9,0.1c-0.9-3-2.1-5.9-3.6-8.6C84.5,24,84,24.2,83.6,24.7z"/>
		<path class="st3" d="M23.3,6.8c1.2,0.7,4.5,0,6.6-1.9c0.8-0.7,1.3-1.5,1.4-2.1c-2.9,0.9-5.7,2.2-8.4,3.7
			C22.9,6.5,23.1,6.7,23.3,6.8z"/>
		<path class="st6" d="M84.3,67.4c0.1,0.2,0.2,0.3,0.4,0.4c1.5-2.7,2.8-5.4,3.7-8.3c-0.7,0.1-1.4,0.6-2.1,1.4
			C84.3,62.9,83.5,66.2,84.3,67.4z"/>
		<path class="st4" d="M56.3,48c-1.5-1.9-3.9-2.5-6.1-2c-1.4,0.3-2.9-0.1-4-1.1l-0.4-0.4c-1-1-1.5-2.5-1.1-4c0.5-2.1-0.2-4.5-2-6
			c-2.2-1.8-5.3-1.8-7.5,0c-2.9,2.3-3.1,6.4-0.6,8.9c1.5,1.5,3.7,2,5.7,1.6c1.4-0.3,2.9,0.1,4,1.1l0.4,0.4c1,1,1.5,2.5,1.1,3.9
			c-0.5,2,0,4.1,1.6,5.6c2.5,2.5,6.7,2.3,9-0.6C58.1,53.3,58.1,50.1,56.3,48z"/>
	</g>
</g>
</svg>
